<?xml version="1.0" encoding="UTF-8" standalone="no"?>
<svg width="313px" height="146px" viewBox="0 0 313 146" version="1.1" xmlns="http://www.w3.org/2000/svg" xmlns:xlink="http://www.w3.org/1999/xlink" xmlns:sketch="http://www.bohemiancoding.com/sketch/ns">
    <!-- Generator: Sketch 3.3.2 (12043) - http://www.bohemiancoding.com/sketch -->
    <title>Group</title>
    <desc>Created with Sketch.</desc>
    <defs>
        <linearGradient x1="102.136122%" y1="101.858557%" x2="13.1081669%" y2="13.6624465%" id="linearGradient-1">
            <stop stop-color="#514E44" offset="0%"></stop>
            <stop stop-color="#FBDA61" offset="100%"></stop>
        </linearGradient>
        <filter x="-50%" y="-50%" width="200%" height="200%" filterUnits="objectBoundingBox" id="filter-2">
            <feGaussianBlur stdDeviation="2.47300092" in="SourceGraphic" result="blur"></feGaussianBlur>
        </filter>
        <path id="path-3" d="M303.534442,113.945473 L2.9579257,110.042986 L22.6602287,8.42832593 L289.788566,7.86008494 L303.534442,113.945473 Z"></path>
        <linearGradient x1="100.940758%" y1="-3.03323783%" x2="14.3118322%" y2="87.5203921%" id="linearGradient-4">
            <stop stop-color="#514E44" offset="0%"></stop>
            <stop stop-color="#FBDA61" offset="100%"></stop>
        </linearGradient>
        <filter x="-50%" y="-50%" width="200%" height="200%" filterUnits="objectBoundingBox" id="filter-5">
            <feGaussianBlur stdDeviation="2.47300092" in="SourceGraphic" result="blur"></feGaussianBlur>
        </filter>
        <path id="path-6" d="M256.486614,103.17113 L59.2027679,98.1377624 L18.4467369,8.19986921 L299.728093,1.90021403 L256.486614,103.17113 Z"></path>
        <filter x="-50%" y="-50%" width="200%" height="200%" filterUnits="objectBoundingBox" id="filter-7">
            <feGaussianBlur stdDeviation="8.82065717" in="SourceGraphic" result="blur"></feGaussianBlur>
        </filter>
        <path id="path-8" d="M241.576208,9.0711796 C213.10261,20.37696 175.001371,30.1698282 147.956195,45.1632498 C134.461527,52.6444825 97.2184692,59.4291322 84.4415005,67.0855179 C75.507712,72.4389419 64.9934104,73.0986772 56.8031826,78.6008494 C56.3538617,78.9027019 48.5237517,83.0865911 47.6068688,83.1334472 C34.3760978,83.8095875 21.8530753,94.1021171 21.8530753,96.0614658 C21.8530753,99.8338834 18.8753862,100.87487 21.8530753,101.64373 C24.0856466,102.220196 29.7502719,103.955332 34.0166988,103.678668 C45.508455,102.933466 47.2944923,106.002898 56.8031826,103.678665 C62.4986848,102.2865 67.8567558,100.710046 73.2763113,99.1721654 C80.8530378,97.0221549 88.5723946,94.9328157 95.7877356,92.6162098 C103.901441,90.0111691 111.616455,87.2345736 119.216734,84.4222248 C181.292117,61.4523278 219.703566,50.2868932 273.873223,23.5802548 C280.671415,20.2286208 273.87322,18.8178135 273.87322,14.6534442 C273.87322,10.4667459 284.249925,10.7151655 268.097702,7.86008494 C261.366869,6.67033723 262.789051,8.00338416 258.29628,7.86008493 C257.347911,7.82983622 255.834106,6.71126373 254.260401,6.62734116 L241.576208,9.0711796 Z"></path>
    </defs>
    <g id="PostIt-Todo" stroke="none" stroke-width="1" fill="none" fill-rule="evenodd" sketch:type="MSPage">
        <g id="iPhone-6" sketch:type="MSArtboardGroup" transform="translate(-32.000000, -75.000000)">
            <g id="Group" sketch:type="MSLayerGroup" transform="translate(35.000000, 92.000000)">
                <g id="Rectangle-3" filter="url(#filter-2)" opacity="0.476912313">
                    <use fill="url(#linearGradient-1)" fill-rule="evenodd" sketch:type="MSShapeGroup" xlink:href="#path-3"></use>
                    <use fill="none" xlink:href="#path-3"></use>
                </g>
                <g id="Rectangle-4" filter="url(#filter-5)" opacity="0.476912313">
                    <use fill="url(#linearGradient-4)" fill-rule="evenodd" sketch:type="MSShapeGroup" xlink:href="#path-6"></use>
                    <use fill="none" xlink:href="#path-6"></use>
                </g>
                <rect id="Rectangle-2" fill="#FFF67E" sketch:type="MSShapeGroup" x="0" y="0" width="294.940393" height="110.041189"></rect>
                <g id="Path-3" filter="url(#filter-7)">
                    <use fill-opacity="0.950000048" fill="#FCF495" fill-rule="evenodd" sketch:type="MSShapeGroup" xlink:href="#path-8"></use>
                    <use fill="none" xlink:href="#path-8"></use>
                </g>
            </g>
        </g>
    </g>
</svg>